<?xml version="1.0" encoding="UTF-8"?>
<svg xmlns="http://www.w3.org/2000/svg" height="24" viewBox="0 -960 960 960" width="24" fill="#FFFFFF">
  <path d="M480-120q-75 0-140.5-28.5t-114-77q-48.5-48.5-77-114T120-480q0-75 28.5-140.5t77-114q48.5-48.5 114-77T480-840q75 0 140.5 28.5t114 77q48.5 48.5 77 114T840-480q0 75-28.5 140.5t-77 114q-48.5 48.5-114 77T480-120Zm0-82q116 0 197-81t81-197q0-116-81-197t-197-81q-116 0-197 81t-81 197q0 116 81 197t197 81Zm-36-161L303-504l58-58 83 83 170-170 58 58-228 228Z"/>
</svg> 